<svg width="25" height="24" viewBox="0 0 25 24" fill="none" xmlns="http://www.w3.org/2000/svg">
<rect width="25" height="24" fill="#E5E5E5"/>
<g id="&#208;&#161;&#208;&#191;&#208;&#184;&#209;&#129;&#208;&#190;&#208;&#186; &#208;&#191;&#208;&#181;&#209;&#128;&#209;&#129;&#208;&#190;&#208;&#189;&#208;&#176;&#208;&#182;&#208;&#181;&#208;&#185;_2" clip-path="url(#clip0_0_1)">
<rect width="375" height="812" transform="translate(-42 -760)" fill="#0B1E2D"/>
<g id="Group 12">
<g id="Frame 10">
<g id="Frame 5">
<path id="&#34;name&#34; &#226;&#152;&#129;&#239;&#184;&#143;" d="M20.2412 9.30176V13H18.5117V3.04688H22.3193C23.4313 3.04688 24.3132 3.33626 24.9648 3.91504C25.6211 4.49382 25.9492 5.25944 25.9492 6.21191C25.9492 7.18717 25.6279 7.94596 24.9854 8.48828C24.3473 9.0306 23.4518 9.30176 22.2988 9.30176H20.2412ZM20.2412 7.91406H22.3193C22.9346 7.91406 23.404 7.77051 23.7275 7.4834C24.0511 7.19173 24.2129 6.77246 24.2129 6.22559C24.2129 5.68783 24.0488 5.25944 23.7207 4.94043C23.3926 4.61686 22.9414 4.45052 22.3672 4.44141H20.2412V7.91406ZM32.0238 5.60352H33.6781V13H32.0238V8.06445L29.1254 13H27.4711V5.60352H29.1254V10.5391L32.0238 5.60352ZM38.1736 10.0742H37.3328V13H35.6717V5.60352H37.3328V8.55664H38.0643L40.1082 5.60352H42.159L39.4861 9.14453L42.3846 13H40.2244L38.1736 10.0742ZM54.7389 9.75977C54.6386 10.8216 54.2467 11.651 53.5631 12.248C52.8795 12.8405 51.9703 13.1367 50.8355 13.1367C50.0426 13.1367 49.343 12.9499 48.7369 12.5762C48.1354 12.1979 47.6705 11.6624 47.3424 10.9697C47.0143 10.277 46.8434 9.47266 46.8297 8.55664V7.62695C46.8297 6.68815 46.996 5.861 47.3287 5.14551C47.6614 4.43001 48.1376 3.87858 48.7574 3.49121C49.3818 3.10384 50.1018 2.91016 50.9176 2.91016C52.0159 2.91016 52.9 3.20866 53.5699 3.80566C54.2398 4.40267 54.6295 5.24577 54.7389 6.33496H53.0162C52.9342 5.61947 52.7245 5.10449 52.3873 4.79004C52.0546 4.47103 51.5647 4.31152 50.9176 4.31152C50.1656 4.31152 49.5868 4.58724 49.1812 5.13867C48.7802 5.68555 48.5751 6.48991 48.566 7.55176V8.43359C48.566 9.50911 48.7574 10.3294 49.1402 10.8945C49.5276 11.4596 50.0927 11.7422 50.8355 11.7422C51.5146 11.7422 52.025 11.5895 52.3668 11.2842C52.7086 10.9788 52.9251 10.4707 53.0162 9.75977H54.7389ZM60.6494 13C60.5765 12.8587 60.5127 12.6286 60.458 12.3096C59.9294 12.861 59.2822 13.1367 58.5166 13.1367C57.7738 13.1367 57.1676 12.9248 56.6982 12.501C56.2288 12.0771 55.9941 11.5531 55.9941 10.9287C55.9941 10.1403 56.2858 9.53646 56.8691 9.11719C57.457 8.69336 58.2956 8.48145 59.3848 8.48145H60.4033V7.99609C60.4033 7.61328 60.2962 7.30794 60.082 7.08008C59.8678 6.84766 59.542 6.73145 59.1045 6.73145C58.7262 6.73145 58.4163 6.82715 58.1748 7.01855C57.9333 7.2054 57.8125 7.44466 57.8125 7.73633H56.1514C56.1514 7.33073 56.2858 6.95247 56.5547 6.60156C56.8236 6.24609 57.1882 5.9681 57.6484 5.76758C58.1133 5.56706 58.6305 5.4668 59.2002 5.4668C60.0661 5.4668 60.7565 5.68555 61.2715 6.12305C61.7865 6.55599 62.0508 7.16667 62.0645 7.95508V11.291C62.0645 11.9564 62.1579 12.4873 62.3447 12.8838V13H60.6494ZM58.8242 11.8037C59.1523 11.8037 59.46 11.724 59.7471 11.5645C60.0387 11.4049 60.2575 11.1908 60.4033 10.9219V9.52734H59.5078C58.8926 9.52734 58.43 9.63444 58.1201 9.84863C57.8102 10.0628 57.6553 10.3659 57.6553 10.7578C57.6553 11.0768 57.7601 11.332 57.9697 11.5234C58.1839 11.7103 58.4688 11.8037 58.8242 11.8037ZM70.1693 13H68.5082V10.0127H65.6303V13H63.9691V5.60352H65.6303V8.68652H68.5082V5.60352H70.1693V13ZM77.9734 13H76.3123V10.5322C75.8839 10.6325 75.4327 10.6826 74.9588 10.6826C73.9471 10.6826 73.1746 10.4411 72.6414 9.95801C72.1082 9.47038 71.8416 8.77311 71.8416 7.86621V5.59668H73.5027V7.86621C73.5027 8.40397 73.6212 8.78451 73.8582 9.00781C74.0997 9.23112 74.4666 9.34277 74.9588 9.34277C75.4054 9.34277 75.8566 9.29036 76.3123 9.18555V5.60352H77.9734V13ZM83.0979 13.1367C82.0451 13.1367 81.1906 12.8063 80.5344 12.1455C79.8827 11.4801 79.5568 10.596 79.5568 9.49316V9.28809C79.5568 8.5498 79.6981 7.89128 79.9807 7.3125C80.2678 6.72917 80.6688 6.27572 81.1838 5.95215C81.6988 5.62858 82.273 5.4668 82.9064 5.4668C83.9136 5.4668 84.6906 5.78809 85.2375 6.43066C85.7889 7.07324 86.0646 7.98242 86.0646 9.1582V9.82812H81.2316C81.2818 10.4388 81.4846 10.9219 81.84 11.2773C82.2001 11.6328 82.6512 11.8105 83.1936 11.8105C83.9546 11.8105 84.5744 11.5029 85.0529 10.8877L85.9484 11.7422C85.6522 12.1842 85.2557 12.5283 84.759 12.7744C84.2668 13.016 83.7131 13.1367 83.0979 13.1367ZM82.8996 6.7998C82.4439 6.7998 82.0747 6.95931 81.7922 7.27832C81.5142 7.59733 81.3365 8.04167 81.259 8.61133H84.424V8.48828C84.3876 7.93229 84.2395 7.51302 83.9797 7.23047C83.7199 6.94336 83.3599 6.7998 82.8996 6.7998ZM93.0621 7.62695C93.0621 7.95508 92.9619 8.25814 92.7613 8.53613C92.5654 8.80957 92.2874 9.02832 91.9273 9.19238C92.775 9.48861 93.1988 10.0605 93.1988 10.9082C93.1988 11.5872 92.9231 12.1296 92.3717 12.5352C91.8202 12.9362 91.082 13.1367 90.1568 13.1367C89.5917 13.1367 89.0768 13.0433 88.6119 12.8564C88.1471 12.665 87.7848 12.3962 87.525 12.0498C87.2652 11.6989 87.1354 11.2842 87.1354 10.8057H88.7896C88.7896 11.1064 88.9241 11.3594 89.193 11.5645C89.4619 11.765 89.8014 11.8652 90.2115 11.8652C90.6171 11.8652 90.9384 11.7718 91.1754 11.585C91.4169 11.3936 91.5377 11.1452 91.5377 10.8398C91.5377 10.4798 91.4329 10.2201 91.2232 10.0605C91.0136 9.90104 90.69 9.82129 90.2525 9.82129H89.0631V8.625H90.2936C91.0364 8.61589 91.4078 8.31055 91.4078 7.70898C91.4078 7.4082 91.3007 7.1735 91.0865 7.00488C90.8723 6.83626 90.5784 6.75195 90.2047 6.75195C89.8401 6.75195 89.5325 6.8431 89.2818 7.02539C89.0312 7.20312 88.9059 7.42871 88.9059 7.70215H87.2516C87.2516 7.05046 87.525 6.51725 88.0719 6.10254C88.6188 5.68327 89.3137 5.47363 90.1568 5.47363C91.0729 5.47363 91.7861 5.66048 92.2965 6.03418C92.8069 6.40788 93.0621 6.9388 93.0621 7.62695Z" fill="white"/>
<path id="&#34;status&#34; &#226;&#152;&#129;&#239;&#184;&#143;" d="M6.67188 21.4688V30H5.54102V26.4668C5.13086 26.584 4.75781 26.666 4.42188 26.7129C4.08594 26.7559 3.70312 26.7773 3.27344 26.7773C2.30078 26.7773 1.57812 26.5664 1.10547 26.1445C0.632812 25.7227 0.390625 25.0762 0.378906 24.2051V21.4688H1.50977V24.1758C1.51367 24.7695 1.64844 25.1973 1.91406 25.459C2.18359 25.7207 2.63672 25.8516 3.27344 25.8516C4.01562 25.8516 4.77148 25.7461 5.54102 25.5352V21.4688H6.67188ZM11.666 30.1172C10.8066 30.1172 10.1074 29.8359 9.56836 29.2734C9.0293 28.707 8.75977 27.9512 8.75977 27.0059V26.8066C8.75977 26.1777 8.87891 25.6172 9.11719 25.125C9.35938 24.6289 9.69531 24.2422 10.125 23.9648C10.5586 23.6836 11.0273 23.543 11.5312 23.543C12.3555 23.543 12.9961 23.8145 13.4531 24.3574C13.9102 24.9004 14.1387 25.6777 14.1387 26.6895V27.1406H9.84375C9.85938 27.7656 10.041 28.2715 10.3887 28.6582C10.7402 29.041 11.1855 29.2324 11.7246 29.2324C12.1074 29.2324 12.4316 29.1543 12.6973 28.998C12.9629 28.8418 13.1953 28.6348 13.3945 28.377L14.0566 28.8926C13.5254 29.709 12.7285 30.1172 11.666 30.1172ZM11.5312 24.4336C11.0938 24.4336 10.7266 24.5938 10.4297 24.9141C10.1328 25.2305 9.94922 25.6758 9.87891 26.25H13.0547V26.168C13.0234 25.6172 12.875 25.1914 12.6094 24.8906C12.3438 24.5859 11.9844 24.4336 11.5312 24.4336ZM21.0957 23.6602V30H20.0059V24.5566H17.8496L17.7207 26.9297C17.6504 28.0195 17.4668 28.7988 17.1699 29.2676C16.877 29.7363 16.4102 29.9805 15.7695 30H15.3359V29.0449L15.6465 29.0215C15.998 28.9824 16.25 28.7793 16.4023 28.4121C16.5547 28.0449 16.6523 27.3652 16.6953 26.373L16.8125 23.6602H21.0957ZM23.0488 26.7715C23.0488 26.1504 23.1699 25.5918 23.4121 25.0957C23.6582 24.5996 23.998 24.2168 24.4316 23.9473C24.8691 23.6777 25.3672 23.543 25.9258 23.543C26.7891 23.543 27.4863 23.8418 28.0176 24.4395C28.5527 25.0371 28.8203 25.832 28.8203 26.8242V26.9004C28.8203 27.5176 28.7012 28.0723 28.4629 28.5645C28.2285 29.0527 27.8906 29.4336 27.4492 29.707C27.0117 29.9805 26.5078 30.1172 25.9375 30.1172C25.0781 30.1172 24.3809 29.8184 23.8457 29.2207C23.3145 28.623 23.0488 27.832 23.0488 26.8477V26.7715ZM24.1387 26.9004C24.1387 27.6035 24.3008 28.168 24.625 28.5938C24.9531 29.0195 25.3906 29.2324 25.9375 29.2324C26.4883 29.2324 26.9258 29.0176 27.25 28.5879C27.5742 28.1543 27.7363 27.5488 27.7363 26.7715C27.7363 26.0762 27.5703 25.5137 27.2383 25.084C26.9102 24.6504 26.4727 24.4336 25.9258 24.4336C25.3906 24.4336 24.959 24.6465 24.6309 25.0723C24.3027 25.498 24.1387 26.1074 24.1387 26.9004ZM30.7793 30V23.6602H33.252C34.0957 23.6602 34.7422 23.8086 35.1914 24.1055C35.6445 24.3984 35.8711 24.8301 35.8711 25.4004C35.8711 25.6934 35.7832 25.959 35.6074 26.1973C35.4316 26.4316 35.1719 26.6113 34.8281 26.7363C35.2109 26.8262 35.5176 27.002 35.748 27.2637C35.9824 27.5254 36.0996 27.8379 36.0996 28.2012C36.0996 28.7832 35.8848 29.2285 35.4551 29.5371C35.0293 29.8457 34.4258 30 33.6445 30H30.7793ZM31.8633 27.2168V29.127H33.6562C34.1094 29.127 34.4473 29.043 34.6699 28.875C34.8965 28.707 35.0098 28.4707 35.0098 28.166C35.0098 27.5332 34.5449 27.2168 33.6152 27.2168H31.8633ZM31.8633 26.3496H33.2637C34.2793 26.3496 34.7871 26.0527 34.7871 25.459C34.7871 24.8652 34.3066 24.5586 33.3457 24.5391H31.8633V26.3496ZM40.666 30.1172C39.8066 30.1172 39.1074 29.8359 38.5684 29.2734C38.0293 28.707 37.7598 27.9512 37.7598 27.0059V26.8066C37.7598 26.1777 37.8789 25.6172 38.1172 25.125C38.3594 24.6289 38.6953 24.2422 39.125 23.9648C39.5586 23.6836 40.0273 23.543 40.5312 23.543C41.3555 23.543 41.9961 23.8145 42.4531 24.3574C42.9102 24.9004 43.1387 25.6777 43.1387 26.6895V27.1406H38.8438C38.8594 27.7656 39.041 28.2715 39.3887 28.6582C39.7402 29.041 40.1855 29.2324 40.7246 29.2324C41.1074 29.2324 41.4316 29.1543 41.6973 28.998C41.9629 28.8418 42.1953 28.6348 42.3945 28.377L43.0566 28.8926C42.5254 29.709 41.7285 30.1172 40.666 30.1172ZM40.5312 24.4336C40.0938 24.4336 39.7266 24.5938 39.4297 24.9141C39.1328 25.2305 38.9492 25.6758 38.8789 26.25H42.0547V26.168C42.0234 25.6172 41.875 25.1914 41.6094 24.8906C41.3438 24.5859 40.9844 24.4336 40.5312 24.4336ZM46.873 27.2988H46.082V30H44.9922V23.6602H46.082V26.3438H46.791L48.9238 23.6602H50.2363L47.7285 26.707L50.4473 30H49.0703L46.873 27.2988ZM51.8438 31.6992L51.2285 31.2773C51.5957 30.7656 51.7871 30.2383 51.8027 29.6953V28.7168H52.8633V29.5664C52.8633 29.9609 52.7656 30.3555 52.5703 30.75C52.3789 31.1445 52.1367 31.4609 51.8438 31.6992ZM59.834 21.4688L62.623 28.4297L65.4121 21.4688H66.8711V30H65.7461V26.6777L65.8516 23.0918L63.0508 30H62.1895L59.3945 23.1094L59.5059 26.6777V30H58.3809V21.4688H59.834ZM71.2617 28.4121L72.7383 23.6602H73.8984L71.3496 30.9785C70.9551 32.0332 70.3281 32.5605 69.4688 32.5605L69.2637 32.543L68.8594 32.4668V31.5879L69.1523 31.6113C69.5195 31.6113 69.8047 31.5371 70.0078 31.3887C70.2148 31.2402 70.3848 30.9688 70.5176 30.5742L70.7578 29.9297L68.4961 23.6602H69.6797L71.2617 28.4121ZM80.4277 27.2461H79.666V30H78.582V27.2461H77.8203L76.0449 30H74.6738L76.9414 26.7188L74.8906 23.6602H76.2031L77.8379 26.2852H78.582V23.6602H79.666V26.2852H80.4043L82.0508 23.6602H83.3633L81.3066 26.7246L83.5742 30H82.2031L80.4277 27.2461ZM87.4844 29.2324C87.8711 29.2324 88.209 29.1152 88.498 28.8809C88.7871 28.6465 88.9473 28.3535 88.9785 28.002H90.0039C89.9844 28.3652 89.8594 28.7109 89.6289 29.0391C89.3984 29.3672 89.0898 29.6289 88.7031 29.8242C88.3203 30.0195 87.9141 30.1172 87.4844 30.1172C86.6211 30.1172 85.9336 29.8301 85.4219 29.2559C84.9141 28.6777 84.6602 27.8887 84.6602 26.8887V26.707C84.6602 26.0898 84.7734 25.541 85 25.0605C85.2266 24.5801 85.5508 24.207 85.9727 23.9414C86.3984 23.6758 86.9004 23.543 87.4785 23.543C88.1895 23.543 88.7793 23.7559 89.248 24.1816C89.7207 24.6074 89.9727 25.1602 90.0039 25.8398H88.9785C88.9473 25.4297 88.791 25.0938 88.5098 24.832C88.2324 24.5664 87.8887 24.4336 87.4785 24.4336C86.9277 24.4336 86.5 24.6328 86.1953 25.0312C85.8945 25.4258 85.7441 25.998 85.7441 26.748V26.9531C85.7441 27.6836 85.8945 28.2461 86.1953 28.6406C86.4961 29.0352 86.9258 29.2324 87.4844 29.2324ZM93.6973 27.2988H92.9062V30H91.8164V23.6602H92.9062V26.3438H93.6152L95.748 23.6602H97.0605L94.5527 26.707L97.2715 30H95.8945L93.6973 27.2988ZM98.2871 26.7715C98.2871 26.1504 98.4082 25.5918 98.6504 25.0957C98.8965 24.5996 99.2363 24.2168 99.6699 23.9473C100.107 23.6777 100.605 23.543 101.164 23.543C102.027 23.543 102.725 23.8418 103.256 24.4395C103.791 25.0371 104.059 25.832 104.059 26.8242V26.9004C104.059 27.5176 103.939 28.0723 103.701 28.5645C103.467 29.0527 103.129 29.4336 102.688 29.707C102.25 29.9805 101.746 30.1172 101.176 30.1172C100.316 30.1172 99.6191 29.8184 99.084 29.2207C98.5527 28.623 98.2871 27.832 98.2871 26.8477V26.7715ZM99.377 26.9004C99.377 27.6035 99.5391 28.168 99.8633 28.5938C100.191 29.0195 100.629 29.2324 101.176 29.2324C101.727 29.2324 102.164 29.0176 102.488 28.5879C102.812 28.1543 102.975 27.5488 102.975 26.7715C102.975 26.0762 102.809 25.5137 102.477 25.084C102.148 24.6504 101.711 24.4336 101.164 24.4336C100.629 24.4336 100.197 24.6465 99.8691 25.0723C99.541 25.498 99.377 26.1074 99.377 26.9004ZM110.02 23.6602H111.104V30H110.02V25.377L107.096 30H106.012V23.6602H107.096V28.2891L110.02 23.6602ZM110.312 21.3516C110.312 21.8242 110.15 22.2051 109.826 22.4941C109.506 22.7793 109.084 22.9219 108.561 22.9219C108.037 22.9219 107.613 22.7773 107.289 22.4883C106.965 22.1992 106.803 21.8203 106.803 21.3516H107.688C107.688 21.625 107.762 21.8398 107.91 21.9961C108.059 22.1484 108.275 22.2246 108.561 22.2246C108.834 22.2246 109.047 22.1484 109.199 21.9961C109.355 21.8438 109.434 21.6289 109.434 21.3516H110.312Z" fill="#6E798C"/>
</g>
</g>
</g>
<g id="Frame 6" filter="url(#filter0_d_0_1)">
<rect width="375" height="60" transform="translate(-42 -8)" fill="#152A3A"/>
<g id="Frame 5_2">
<g id="action/character_24px_selected">
<g id="Subtract">
<path fill-rule="evenodd" clip-rule="evenodd" d="M12.4659 2C7.45278 2 3.375 6.03793 3.375 10.9998L3.42652 18.9997C3.67399 20.6907 5.13359 21.9996 6.91035 21.9996C8.09621 21.9996 9.0053 21.5826 9.60934 20.8257C9.98499 21.199 10.4316 21.4951 10.9235 21.6966C11.4153 21.8982 11.9426 22.0013 12.4749 22C13.0072 21.9987 13.534 21.893 14.0248 21.689C14.5157 21.4851 14.9608 21.1869 15.3346 20.8117C15.9417 21.5736 16.8538 21.9996 18.0215 21.9996C19.971 21.9996 21.5568 20.4297 21.5568 18.4997V10.9998C21.5568 6.03793 17.479 2 12.4659 2ZM9.29839 12.9661C10.5257 12.9661 11.5206 11.9712 11.5206 10.7439C11.5206 9.51662 10.5257 8.5217 9.29839 8.5217C8.07109 8.5217 7.07617 9.51662 7.07617 10.7439C7.07617 11.9712 8.07109 12.9661 9.29839 12.9661ZM18.1871 10.7439C18.1871 11.9712 17.1922 12.9661 15.9649 12.9661C14.7376 12.9661 13.7427 11.9712 13.7427 10.7439C13.7427 9.51662 14.7376 8.5217 15.9649 8.5217C17.1922 8.5217 18.1871 9.51662 18.1871 10.7439Z" fill="#2FD8FC"/>
<path fill-rule="evenodd" clip-rule="evenodd" d="M12.4659 2C7.45278 2 3.375 6.03793 3.375 10.9998L3.42652 18.9997C3.67399 20.6907 5.13359 21.9996 6.91035 21.9996C8.09621 21.9996 9.0053 21.5826 9.60934 20.8257C9.98499 21.199 10.4316 21.4951 10.9235 21.6966C11.4153 21.8982 11.9426 22.0013 12.4749 22C13.0072 21.9987 13.534 21.893 14.0248 21.689C14.5157 21.4851 14.9608 21.1869 15.3346 20.8117C15.9417 21.5736 16.8538 21.9996 18.0215 21.9996C19.971 21.9996 21.5568 20.4297 21.5568 18.4997V10.9998C21.5568 6.03793 17.479 2 12.4659 2ZM9.29839 12.9661C10.5257 12.9661 11.5206 11.9712 11.5206 10.7439C11.5206 9.51662 10.5257 8.5217 9.29839 8.5217C8.07109 8.5217 7.07617 9.51662 7.07617 10.7439C7.07617 11.9712 8.07109 12.9661 9.29839 12.9661ZM18.1871 10.7439C18.1871 11.9712 17.1922 12.9661 15.9649 12.9661C14.7376 12.9661 13.7427 11.9712 13.7427 10.7439C13.7427 9.51662 14.7376 8.5217 15.9649 8.5217C17.1922 8.5217 18.1871 9.51662 18.1871 10.7439Z" fill="#43D049"/>
</g>
</g>
</g>
</g>
</g>
<defs>
<filter id="filter0_d_0_1" x="-72" y="-42" width="435" height="120" filterUnits="userSpaceOnUse" color-interpolation-filters="sRGB">
<feFlood flood-opacity="0" result="BackgroundImageFix"/>
<feColorMatrix in="SourceAlpha" type="matrix" values="0 0 0 0 0 0 0 0 0 0 0 0 0 0 0 0 0 0 127 0" result="hardAlpha"/>
<feOffset dy="-4"/>
<feGaussianBlur stdDeviation="15"/>
<feColorMatrix type="matrix" values="0 0 0 0 0 0 0 0 0 0 0 0 0 0 0 0 0 0 0.08 0"/>
<feBlend mode="normal" in2="BackgroundImageFix" result="effect1_dropShadow_0_1"/>
<feBlend mode="normal" in="SourceGraphic" in2="effect1_dropShadow_0_1" result="shape"/>
</filter>
<clipPath id="clip0_0_1">
<rect width="375" height="812" fill="white" transform="translate(-42 -760)"/>
</clipPath>
</defs>
</svg>
